# xmcd CD database file
#
# Track frame offsets:
#	150
#	14065
#	29535
#	47247
#	67945
#	93472
#	106130
#	125542
#	133542
#	148350
#	167550
#
# Disc length: 2492 seconds
#
# Revision: 9
# Processed by: cddbd v1.5PL3 Copyright (c) Steve Scherf et al.
# Submitted via: CDex 1.50Beta5
#
DISCID=9d09ba0b
DTITLE=葛生千夏 - THE CITY IN THE SEA
DYEAR=1991
DGENRE=Trip-Hop
TTITLE0=THE MAY QUEEN
TTITLE1=NATURE REWARDS ME
TTITLE2=A RECENT LETTER
TTITLE3=FAIRY-LAND
TTITLE4=THE CITY IN THE SEA 1
TTITLE5=THE CITY IN THE SEA 2
TTITLE6=THE VOYAGE
TTITLE7=SINCE I LEFT YOU(SONNET 113)
TTITLE8=ELDORADO
TTITLE9=EULALIE-A SONG
TTITLE10=真珠
EXTD=YEAR: 1991
EXTT0=
EXTT1=
EXTT2=
EXTT3=
EXTT4=
EXTT5=
EXTT6=
EXTT7=
EXTT8=
EXTT9=
EXTT10=
PLAYORDER=
